<svg xmlns="http://www.w3.org/2000/svg" version="1.1" xmlns:xlink="http://www.w3.org/1999/xlink" xmlns:svgjs="http://svgjs.dev/svgjs" width="100%" height="100%" viewBox="0 0 1000 600"><rect width="1000" height="600" x="0" y="0" fill="#000000"/><g><rect width="333.3333333333333" height="333.3333333333333" rx="13.333333333333334" ry="13.333333333333334" y="109.03385126832876" fill="#08BB" transform="matrix(1.4398993195397667,0,0,1.4398993195397665,0,-96.98098580548063)" x="86.81162261962892"/><path d="M213.70194200448188 350.700519393437L213.70194200448188 350.700519393437Q201.16620995979392 350.700519393437 193.09491367347573 345.075834793909Q184.99839458626278 339.42592739348623 181.0888604475774 329.63948064632547Q177.20454910978677 319.8278110982698 177.20454910978677 307.2920790535819L177.20454910978677 307.2920790535819L177.20454910978677 243.9071804050893Q177.20454910978677 231.01832914787494 181.01319204489317 221.30755080339833Q184.82183497999958 211.59677245892175 192.8931312663178 206.14864746565698Q200.98965035353072 200.70052247239218 213.70194200448188 200.70052247239218L213.70194200448188 200.70052247239218Q226.41423365543304 200.70052247239218 234.409861539067 206.14864746565698Q242.38026662180627 211.59677245892175 246.21413235780742 221.30755080339833Q250.0227752929138 231.01832914787494 250.0227752929138 243.9071804050893L250.0227752929138 243.9071804050893L250.0227752929138 307.2920790535819Q250.0227752929138 320.0043707045331 246.1132411542284 329.8160402525886Q242.20370701554302 339.62770980064414 234.20807913190905 345.1515031965932Q226.23767404916984 350.700519393437 213.70194200448188 350.700519393437ZM213.70194200448188 334.70926362616905L213.70194200448188 334.70926362616905Q220.58776664874708 334.70926362616905 224.14418157490607 330.7240610847994Q227.6753737001703 326.71363574253513 229.03740494848645 320.4583811206384Q230.39943619680267 314.2031264987418 230.39943619680267 307.46863865984517L230.39943619680267 307.46863865984517L230.39943619680267 243.7306207988261Q230.39943619680267 236.64301374740293 229.13829615206546 230.3877591255063Q227.8519333064335 224.10728170271497 224.32074118116927 220.29863876760857Q220.78954905590504 216.48999583250216 213.70194200448188 216.48999583250216L213.70194200448188 216.48999583250216Q206.61433495305872 216.48999583250216 202.98225162421554 220.29863876760857Q199.35016829537236 224.10728170271497 198.0890282506351 230.3877591255063Q196.80266540500315 236.64301374740293 196.80266540500315 243.7306207988261L196.80266540500315 243.7306207988261L196.80266540500315 307.46863865984517Q196.80266540500315 314.2031264987418 198.16469665331934 320.4583811206384Q199.52672790163555 326.71363574253513 203.25970243405771 330.7240610847994Q206.96745416558514 334.70926362616905 213.70194200448188 334.70926362616905ZM280.5171415746597 349.0610373352786L262.1801653241806 349.0610373352786L285.7887069616613 293.84832617668314L262.7350669438649 244.0837400113525L281.2486028006074 244.0837400113525L296.6849569481909 277.32739159062555L310.3052694313528 244.0837400113525L329.3737069077796 244.0837400113525L305.4120460577724 296.2192694607892L329.75204892120075 349.0610373352786L311.21329026356364 349.0610373352786L294.69235567750604 313.47166527279427L280.5171415746597 349.0610373352786Z " fill="#0A" transform="matrix(1.4398993195397667,0,0,1.4398993195397665,0,-96.98098580548063)"/><path d="M607.6813793373461 295.11881666929526L503.47829174156345 350.70052166956276L503.47829174156345 311.86394013580053L578.2765390332119 275.54921454578914L503.47829174156345 239.94060862002797L503.47829174156345 200.70053013526567L607.6813793373461 256.28223513553314L607.6813793373461 295.11881666929526Z " fill="#0a66c2" transform="matrix(1.4398993195397667,0,0,1.4398993195397665,0,-96.98098580548063)"/></g></svg>